<?xml version="1.0" standalone="no"?>
<!DOCTYPE svg PUBLIC "-//W3C//DTD SVG 20010904//EN"
 "http://www.w3.org/TR/2001/REC-SVG-20010904/DTD/svg10.dtd">
<svg version="1.0" xmlns="http://www.w3.org/2000/svg"
 width="800.000000pt" height="800.000000pt" viewBox="0 0 800.000000 800.000000"
 preserveAspectRatio="xMidYMid meet">

<g transform="translate(0.000000,800.000000) scale(0.100000,-0.100000)"
fill="#000000" stroke="none">
<path d="M3805 7245 c-116 -26 -2099 -706 -2190 -751 -240 -117 -440 -361
-506 -619 -43 -169 -42 -179 100 -1670 86 -889 138 -1398 151 -1450 55 -232
189 -426 395 -575 150 -107 1660 -1144 1741 -1196 88 -54 223 -105 337 -124
100 -18 313 -8 412 19 162 43 217 79 1150 746 490 349 920 662 957 695 149
134 263 336 298 528 15 85 270 2723 270 2796 0 142 -51 329 -125 462 -86 154
-234 298 -392 381 -52 27 -415 156 -1093 386 -558 191 -1042 354 -1075 363
-82 22 -347 28 -430 9z m1280 -934 c550 -188 1019 -351 1042 -362 52 -25 129
-106 154 -164 44 -99 47 -53 -91 -1475 -71 -734 -135 -1354 -141 -1378 -7 -24
-29 -70 -50 -102 -35 -55 -86 -93 -929 -695 -490 -350 -912 -646 -938 -658
-72 -33 -207 -31 -282 4 -63 30 -1758 1194 -1807 1241 -33 32 -86 125 -96 169
-4 14 -65 639 -137 1390 -142 1485 -138 1406 -84 1516 32 67 118 146 187 171
66 25 1985 678 2012 686 11 2 52 3 90 2 61 -3 193 -45 1070 -345z"/>
<path d="M3855 5554 c-520 -92 -858 -507 -914 -1124 -14 -148 -14 -493 0 -640
25 -269 102 -501 229 -691 53 -79 196 -222 271 -271 211 -139 457 -196 732
-170 250 23 398 76 564 201 205 155 321 369 377 699 l6 32 -189 0 -189 0 -7
-47 c-10 -72 -53 -198 -94 -283 -65 -136 -186 -232 -346 -276 -91 -25 -332
-30 -420 -10 -301 71 -503 349 -555 766 -8 64 -10 205 -7 435 4 298 7 351 25
425 54 226 114 343 236 465 103 103 173 143 307 176 114 29 349 23 449 -11
216 -73 342 -239 400 -525 l16 -80 187 -3 187 -2 -6 42 c-12 87 -57 253 -89
330 -110 260 -313 448 -570 527 -159 50 -429 65 -600 35z"/>
</g>
</svg>
